<?xml version="1.0" standalone="no"?>
<!DOCTYPE svg PUBLIC "-//W3C//DTD SVG 20010904//EN"
 "http://www.w3.org/TR/2001/REC-SVG-20010904/DTD/svg10.dtd">
<svg version="1.0" xmlns="http://www.w3.org/2000/svg"
 width="1002.000000pt" height="1002.000000pt" viewBox="0 0 1002.000000 1002.000000"
 preserveAspectRatio="xMidYMid meet">
<metadata>
Created by potrace 1.14, written by Peter Selinger 2001-2017
</metadata>
<g transform="translate(0.000000,1002.000000) scale(0.100000,-0.100000)"
fill="#000000" stroke="none">
<path d="M5568 8872 c-29 -16 -61 -47 -82 -77 -42 -62 -63 -84 -221 -220 -112
-96 -487 -432 -615 -549 -90 -83 -457 -412 -519 -466 -35 -30 -87 -75 -115
-101 -310 -277 -398 -351 -409 -340 -6 6 -7 11 -1 11 5 0 4 4 -2 8 -6 4 -39
50 -74 103 -77 119 -114 144 -206 143 -52 0 -70 -6 -111 -32 -27 -18 -53 -32
-56 -32 -4 0 -34 -21 -67 -47 -95 -75 -122 -93 -144 -97 -143 -27 -185 -49
-208 -105 -47 -116 -56 -154 -42 -168 16 -16 19 -59 4 -68 -5 -3 -12 6 -16 20
-3 14 -8 25 -11 25 -2 0 -24 -17 -49 -37 -48 -40 -83 -89 -102 -140 -7 -18
-17 -46 -23 -62 -8 -21 -19 -31 -43 -35 -54 -10 -94 -67 -102 -146 -2 -19 -6
-45 -9 -56 -13 -59 38 -207 100 -289 l27 -34 -59 -54 c-32 -30 -150 -136 -263
-237 -208 -185 -331 -296 -450 -405 -36 -33 -83 -75 -104 -94 -31 -27 -37 -38
-31 -60 7 -31 49 -71 75 -71 10 0 42 21 71 48 30 26 126 112 214 192 88 80
228 206 310 280 83 74 171 154 197 178 104 97 111 102 125 91 7 -6 13 -15 13
-20 0 -5 23 -42 51 -84 55 -81 211 -242 306 -317 l59 -46 2 55 c1 37 -4 60
-13 70 -8 8 -15 27 -15 43 0 22 4 28 19 27 11 0 17 -5 15 -9 -5 -7 1 -9 21 -8
18 2 60 -75 50 -90 -3 -5 1 -10 7 -12 9 -3 14 -40 16 -127 4 -143 -2 -171 -25
-123 -8 17 -19 32 -24 32 -15 0 -2 -59 36 -175 33 -99 135 -435 155 -510 5
-16 18 -63 29 -102 12 -40 21 -75 21 -77 0 -2 -33 -14 -72 -26 -99 -30 -180
-68 -260 -123 -38 -25 -68 -41 -68 -35 0 23 -45 71 -93 98 -78 44 -165 56
-316 42 -69 -6 -152 -17 -184 -23 l-58 -12 -215 -270 c-119 -148 -316 -390
-439 -537 -184 -219 -225 -274 -230 -306 -4 -21 -18 -61 -32 -88 -49 -92 -26
-179 55 -208 25 -9 92 -13 212 -13 253 0 286 15 435 203 76 95 139 129 262
139 90 7 109 -4 155 -88 96 -181 250 -261 498 -261 125 1 215 18 344 66 52 20
102 36 109 36 24 0 27 -26 8 -61 -10 -19 -24 -52 -31 -74 -7 -21 -23 -60 -35
-85 -13 -25 -30 -63 -40 -85 -41 -96 -50 -115 -57 -115 -5 0 -8 -11 -8 -25 0
-16 -6 -25 -15 -25 -16 0 -22 10 -27 45 -2 11 -7 23 -12 27 -5 3 -10 22 -10
42 -1 23 -6 36 -15 36 -7 0 -11 6 -8 13 4 11 -11 11 -86 0 -187 -27 -436 -126
-565 -223 -29 -22 -56 -40 -61 -40 -15 0 -176 -174 -214 -233 -83 -125 -150
-290 -178 -437 -6 -36 -12 -130 -12 -210 0 -123 4 -162 27 -253 61 -251 171
-446 351 -622 284 -278 679 -438 1230 -497 300 -32 2328 0 2710 43 340 39 605
108 819 216 188 95 365 244 466 393 22 32 40 61 40 64 0 3 -19 -2 -42 -11 -31
-12 -77 -17 -163 -17 -106 -1 -126 2 -173 23 -29 13 -63 37 -77 53 -49 58 -55
106 -55 430 l0 298 -68 0 -68 0 9 70 c9 61 13 70 30 70 11 0 40 9 64 21 44 21
101 98 124 166 l11 33 69 0 69 0 0 -100 0 -100 126 0 126 0 -7 -77 c-4 -43 -9
-81 -12 -85 -2 -5 -56 -8 -119 -8 l-114 0 0 -270 c0 -294 3 -315 55 -338 38
-18 104 -14 153 8 l43 19 26 -60 c33 -75 36 -72 87 81 142 426 -12 893 -387
1178 -116 88 -264 168 -241 130 5 -7 0 -9 -14 -6 -11 3 -30 -1 -41 -9 -22 -15
-42 -20 -106 -28 -22 -3 -62 -10 -90 -16 -58 -13 -97 -9 -103 9 -3 10 4 12 30
7 25 -5 38 -2 47 9 8 9 20 16 28 16 34 0 102 52 122 94 12 23 21 47 21 53 0
28 -41 82 -138 185 -206 217 -293 319 -290 336 2 10 15 18 32 20 23 3 38 -6
75 -41 25 -25 60 -52 78 -61 80 -40 304 -44 388 -7 62 27 95 73 95 130 0 26
-7 70 -15 97 -8 27 -13 60 -12 73 2 31 37 54 71 45 29 -7 93 -68 102 -99 4
-11 17 -33 28 -50 12 -16 29 -43 37 -60 7 -16 34 -51 59 -76 60 -63 99 -73
285 -74 131 0 160 3 227 24 76 24 77 24 140 6 91 -26 186 -33 328 -25 140 8
171 18 202 67 25 42 21 94 -16 174 -14 29 -26 65 -26 79 0 16 -27 59 -71 115
-39 50 -103 132 -141 183 l-71 92 34 48 c29 40 34 55 34 102 -1 39 -7 67 -23
94 -12 20 -22 49 -22 64 0 15 -6 39 -14 54 -14 27 -262 337 -279 349 -10 7
-192 15 -743 31 -239 6 -434 15 -434 18 0 24 147 516 221 740 15 47 35 121 43
165 16 79 16 80 78 134 118 102 243 238 304 330 l61 91 339 -303 c539 -480
558 -497 576 -497 26 0 108 83 108 109 0 23 -14 39 -131 142 -41 36 -116 103
-168 150 -52 46 -136 120 -186 164 -211 185 -343 301 -388 343 l-48 44 46 92
c44 87 47 97 47 170 -1 43 -5 83 -11 89 -6 6 -11 20 -11 30 0 32 -31 74 -75
101 -35 22 -46 39 -73 104 -23 57 -47 93 -91 139 -32 34 -62 75 -66 90 -15 60
-69 169 -96 194 -17 15 -52 31 -87 38 -89 20 -134 38 -172 71 -49 43 -114 87
-141 95 -13 5 -40 19 -60 32 -50 33 -118 40 -177 18 -62 -23 -83 -44 -154
-148 -63 -94 -61 -93 -109 -47 -9 8 -109 96 -224 195 -179 155 -537 470 -730
643 -33 29 -133 117 -222 195 l-163 142 53 50 c130 125 236 215 282 239 66 34
84 50 128 116 43 63 45 78 16 114 -26 32 -33 32 -91 -2z m-384 -704 c56 -51
137 -124 180 -163 44 -38 84 -74 90 -80 6 -5 49 -44 96 -84 47 -41 90 -80 95
-86 10 -10 169 -150 366 -322 52 -45 108 -94 124 -110 17 -15 87 -77 155 -137
167 -146 191 -170 165 -163 -60 16 -80 17 -114 6 -49 -16 -68 -35 -102 -100
-15 -31 -57 -88 -92 -126 -36 -39 -70 -87 -77 -108 -15 -46 -8 -119 20 -201
36 -103 93 -355 110 -479 10 -75 9 -105 -4 -185 -9 -52 -24 -117 -34 -145 -11
-27 -60 -158 -110 -290 -96 -254 -106 -279 -152 -380 -16 -35 -41 -93 -56
-127 -14 -35 -61 -136 -105 -225 -77 -158 -80 -162 -115 -169 -22 -4 -40 -2
-47 5 -7 7 -72 11 -194 11 l-183 0 0 -98 c0 -96 -1 -99 -29 -126 l-30 -29 -48
76 c-26 41 -60 96 -75 121 l-28 46 -218 0 -218 0 -81 163 c-123 245 -171 360
-397 937 -89 228 -103 333 -71 520 19 114 38 200 77 340 57 203 51 239 -52
345 -37 39 -79 93 -93 120 -41 83 -103 121 -178 109 -22 -4 -39 -4 -39 -1 0 3
93 90 208 194 114 103 227 206 252 229 25 23 61 55 80 70 41 33 292 258 396
354 45 42 301 273 383 347 20 18 38 32 39 33 2 0 50 -42 106 -92z m1549 -848
c-16 -28 -33 -39 -33 -22 0 13 31 52 41 52 6 0 2 -13 -8 -30z m-4123 -1279 c0
-14 -5 -18 -20 -14 -11 3 -17 9 -14 14 3 5 10 7 15 4 5 -4 9 -1 9 4 0 6 2 11
5 11 3 0 5 -9 5 -19z m2913 -2083 c21 -255 38 -469 37 -475 0 -7 -11 -13 -24
-13 -19 0 -23 4 -19 20 5 19 0 20 -69 20 l-75 0 -85 108 c-194 246 -320 428
-381 552 l-32 65 -2 -60 c-5 -123 -34 -561 -39 -582 -2 -13 -1 -23 4 -23 5 0
14 82 21 183 6 100 14 221 18 270 3 48 9 87 14 87 5 0 19 -16 31 -37 13 -20
60 -93 106 -162 45 -69 71 -112 57 -96 -14 17 -58 78 -98 137 -39 59 -73 106
-74 104 -1 -1 -9 -105 -18 -231 -23 -343 -24 -355 -45 -355 -14 0 -17 8 -15
43 1 23 1 32 -2 20 -4 -21 -10 -23 -61 -23 -69 0 -92 -11 -73 -34 12 -14 9
-16 -19 -16 l-33 0 5 48 c3 26 25 239 49 474 l44 428 95 0 95 0 34 -57 c72
-123 340 -511 353 -512 4 -1 5 14 2 32 -5 41 -24 421 -24 493 l0 54 93 0 93 0
37 -462z m534 446 c210 -43 372 -166 460 -349 35 -75 63 -183 63 -251 0 -56
-26 -138 -55 -171 l-24 -28 22 45 c15 31 22 67 24 115 l2 70 -14 -62 c-19 -82
-35 -112 -85 -157 -44 -40 -82 -59 -165 -84 -57 -16 -501 -30 -515 -16 -5 5
-32 180 -60 389 -28 209 -53 385 -56 390 -8 18 6 -126 26 -265 10 -74 31 -222
45 -329 14 -106 30 -202 36 -213 10 -18 8 -19 -13 -13 -12 4 -24 8 -24 9 -1 0
-27 195 -58 431 -31 237 -58 442 -61 457 -4 26 -2 27 53 33 31 4 62 8 67 10
31 11 265 3 332 -11z m-1427 -5 c0 -6 -20 -145 -45 -309 -44 -297 -58 -351
-101 -422 -38 -60 -44 -52 -12 14 30 61 47 147 93 468 9 58 17 115 19 128 2
12 0 22 -3 22 -4 0 -24 -111 -44 -247 -31 -206 -43 -259 -68 -313 -73 -158
-233 -251 -434 -252 -61 0 -110 5 -143 16 -82 28 -152 111 -152 181 0 17 -4
24 -11 19 -16 -9 -4 -120 17 -153 15 -25 15 -25 -10 2 -14 15 -30 46 -37 70
-21 78 -6 148 96 457 53 162 100 298 104 302 10 11 201 22 201 12 0 -5 -39
-137 -86 -294 -97 -322 -110 -398 -75 -442 39 -49 141 -59 228 -23 50 21 119
91 141 143 10 26 43 179 73 340 l53 292 98 0 c64 0 98 -4 98 -11z m2204 4
l197 -6 40 -78 c21 -43 39 -81 39 -84 0 -3 -16 -5 -35 -5 -28 0 -35 4 -35 20
0 18 -7 20 -67 20 -38 0 -119 3 -180 7 -120 6 -121 6 -103 -42 8 -21 13 -24
29 -16 17 9 23 0 59 -87 l40 -97 183 -6 c101 -3 185 -6 186 -7 1 -1 22 -40 46
-87 43 -82 43 -85 21 -85 -32 0 -54 10 -54 25 0 7 -7 16 -16 19 -18 7 -354 8
-354 2 0 -3 5 -17 10 -31 8 -20 15 -25 29 -20 14 4 23 0 31 -15 12 -23 150
-350 150 -356 0 -2 -16 -4 -36 -4 -31 0 -35 3 -29 20 6 18 0 19 -66 22 l-73 3
-23 60 c-13 33 -80 211 -150 395 -69 184 -130 339 -134 345 -17 18 -9 -21 20
-101 133 -362 269 -714 283 -731 8 -10 6 -13 -8 -13 -13 0 -24 13 -35 43 -9
23 -86 230 -172 459 -86 229 -157 421 -157 427 0 13 82 14 364 4z m870 -23
c153 -6 297 -10 320 -10 39 0 44 -3 109 -85 l67 -85 -49 0 c-40 0 -49 3 -47
18 1 15 -14 18 -127 26 -71 4 -131 6 -134 3 -3 -3 3 -17 14 -31 13 -17 24 -23
40 -20 18 5 46 -28 199 -233 97 -131 221 -295 276 -365 54 -70 98 -129 98
-132 0 -3 -22 -6 -49 -6 -43 0 -49 2 -44 19 6 22 -19 31 -89 31 l-47 0 -89
123 c-87 119 -392 551 -422 596 -14 21 -24 23 -155 28 -125 6 -141 8 -157 27
-17 21 -17 21 -17 1 0 -11 6 -29 14 -39 9 -13 11 -22 5 -26 -9 -5 182 -334
373 -642 l67 -108 -44 0 c-36 0 -44 3 -42 18 1 14 -9 17 -66 20 l-66 3 -155
272 c-85 150 -185 327 -222 395 -67 122 -85 147 -85 118 0 -19 306 -574 418
-759 24 -39 35 -67 28 -67 -15 0 -526 899 -526 925 0 3 73 3 163 0 89 -3 288
-10 441 -15z m-4141 -24 c95 -46 137 -123 137 -249 0 -163 -89 -368 -195 -448
l-30 -23 31 35 c89 99 151 243 159 370 l5 84 -14 -80 c-16 -95 -35 -149 -77
-221 -122 -214 -414 -365 -679 -352 -161 8 -239 73 -249 210 l-6 73 -14 -62
c-14 -65 -10 -109 14 -158 l15 -30 -25 30 c-71 85 -54 229 45 378 130 198 325
365 505 432 98 37 138 44 236 41 70 -2 96 -7 142 -30z m-891 -17 c39 -9 63
-22 91 -49 34 -34 37 -43 37 -91 0 -78 -60 -194 -122 -237 -20 -14 -19 -12 5
17 36 43 73 116 81 161 6 34 6 34 -17 -12 -53 -102 -100 -155 -194 -218 -112
-75 -271 -120 -424 -120 l-77 0 -129 -164 -128 -165 -45 -1 c-65 -1 -90 -9
-90 -31 0 -16 -8 -19 -51 -19 -62 0 -83 -34 176 282 110 134 268 329 350 434
l150 191 100 13 c55 6 107 13 115 15 37 7 124 4 172 -6z m5116 -240 c32 -47
90 -129 128 -183 38 -54 82 -117 98 -140 86 -122 183 -254 205 -278 17 -19 20
-28 10 -28 -8 0 -21 11 -30 23 -293 405 -506 712 -485 700 9 -5 43 -47 74 -94z
m-2642 -356 c15 -20 23 -33 16 -29 -13 8 -56 66 -49 66 3 0 17 -17 33 -37z
m-3086 -7 c0 -10 -242 -311 -252 -315 -14 -5 -4 10 102 144 123 156 150 187
150 171z m3150 -76 c17 -22 29 -40 27 -40 -3 0 -20 18 -37 40 -17 22 -29 40
-27 40 3 0 20 -18 37 -40z m-1740 -34 c0 -2 -8 -10 -17 -17 -16 -13 -17 -12
-4 4 13 16 21 21 21 13z m1795 -36 c10 -11 16 -20 13 -20 -3 0 -13 9 -23 20
-10 11 -16 20 -13 20 3 0 13 -9 23 -20z m40 -50 c10 -11 16 -20 13 -20 -3 0
-13 9 -23 20 -10 11 -16 20 -13 20 3 0 13 -9 23 -20z m59 -69 c-3 -3 -15 6
-27 18 l-22 24 27 -19 c14 -10 24 -21 22 -23z m-1504 -214 c0 -2 -14 -41 -30
-86 -17 -46 -29 -85 -27 -87 2 -2 49 34 104 81 l101 85 87 0 87 0 -6 -27 c-13
-62 -22 -153 -15 -153 4 0 44 41 89 90 l82 90 100 0 100 0 -37 -42 c-49 -56
-358 -368 -365 -368 -3 0 64 69 148 154 132 135 172 186 145 186 -4 0 -77 -70
-163 -155 l-156 -155 -52 0 -51 0 -4 38 c-3 24 -4 19 -3 -16 1 -49 -1 -52 -23
-52 l-24 0 6 96 c6 90 5 95 -11 84 -9 -7 -4 -1 11 14 29 27 47 33 47 16 0 -5
4 -10 9 -10 5 0 11 17 15 38 3 20 9 48 13 62 5 21 -4 15 -58 -33 -35 -33 -114
-97 -176 -144 -94 -71 -117 -84 -145 -82 -57 4 -71 0 -64 -16 6 -17 -20 -20
-43 -6 -13 8 -11 23 12 100 15 50 45 138 68 196 l40 105 95 0 c52 0 94 -1 94
-3z m1020 -24 c0 -20 -37 -319 -45 -370 -4 -24 -11 -33 -25 -33 -16 0 -19 5
-15 28 13 68 35 249 35 280 0 63 -8 29 -25 -98 -24 -194 -18 -180 -76 -180
-37 0 -49 -4 -49 -15 0 -15 -50 -23 -50 -7 0 4 16 98 37 210 l37 202 88 0 c77
0 88 -2 88 -17z m740 -18 c25 -65 24 -75 -5 -75 -15 0 -33 7 -39 15 -9 13 -29
15 -97 13 l-85 -3 9 -35 c7 -29 10 -32 18 -17 23 40 36 15 68 -125 19 -79 36
-149 38 -155 4 -9 -5 -13 -26 -13 -21 0 -31 5 -31 15 0 11 -12 15 -50 15 -27
0 -50 2 -50 3 0 2 -11 64 -25 138 -14 74 -25 144 -25 157 0 22 -2 23 -97 20
-72 -2 -97 -6 -95 -15 1 -8 -8 -13 -22 -13 -25 0 -36 21 -36 73 l0 27 270 0
270 0 10 -25z m329 15 c34 0 38 -4 76 -70 l40 -70 93 0 c50 0 92 2 92 5 0 3
-23 35 -51 70 l-51 65 100 0 99 0 65 -77 c36 -43 114 -132 172 -198 l107 -120
-41 -3 c-26 -2 -46 2 -56 12 -8 9 -32 16 -52 16 -34 0 -42 6 -101 80 l-64 80
-159 0 c-127 0 -158 -3 -158 -14 0 -21 30 -41 56 -38 23 3 25 1 93 -110 l23
-38 -41 0 c-29 0 -41 4 -41 14 0 11 -14 16 -47 18 l-46 3 -83 150 c-72 130
-104 176 -104 149 0 -9 126 -247 157 -297 22 -34 22 -38 6 -35 -17 3 -50 58
-192 322 l-53 99 62 -6 c35 -4 79 -7 99 -7z m-651 -112 c6 -7 20 -67 31 -133
12 -66 26 -130 31 -142 8 -20 7 -23 -15 -23 -14 0 -25 3 -25 8 0 4 -11 70 -25
146 -14 77 -25 144 -25 148 0 12 16 10 28 -4z m-1378 -111 c0 -2 -12 -14 -27
-28 l-28 -24 24 28 c23 25 31 32 31 24z m2524 -117 c31 -39 51 -70 44 -70 -11
0 -98 98 -121 136 -22 37 26 -4 77 -66z m-2584 66 c0 -2 -8 -10 -17 -17 -16
-13 -17 -12 -4 4 13 16 21 21 21 13z m-40 -30 c0 -2 -8 -10 -17 -17 -16 -13
-17 -12 -4 4 13 16 21 21 21 13z m-583 -318 c-3 -8 -6 -5 -6 6 -1 11 2 17 5
13 3 -3 4 -12 1 -19z m1872 -97 c11 -11 29 -25 41 -31 11 -6 17 -16 14 -22 -5
-7 -1 -9 9 -5 10 3 17 2 17 -4 0 -6 9 -8 20 -4 12 4 20 2 20 -5 0 -8 9 -10 26
-6 17 5 23 3 19 -4 -9 -14 -73 -12 -148 5 -57 13 -70 13 -113 0 -53 -16 -144
-18 -184 -4 -18 6 -12 7 22 3 25 -3 49 -1 52 5 3 5 15 7 26 4 11 -3 20 0 20 6
0 5 7 8 15 5 9 -4 15 0 15 9 0 9 9 19 21 22 12 4 30 16 40 26 24 24 44 24 68
0z m-726 -22 c-8 -8 -19 -8 -40 -1 -28 10 -28 10 12 11 28 1 36 -2 28 -10z
m37 -9 c0 -5 -5 -10 -11 -10 -5 0 -7 5 -4 10 3 6 8 10 11 10 2 0 4 -4 4 -10z
m-1696 -44 l90 -36 197 0 c275 0 339 -16 418 -106 56 -64 76 -131 75 -259 0
-88 -3 -107 -27 -160 -16 -33 -46 -79 -69 -102 l-41 -41 40 -21 c90 -45 144
-148 151 -287 11 -215 -60 -361 -211 -430 l-62 -29 -243 -3 c-219 -3 -254 -1
-345 18 -262 56 -388 207 -404 487 -12 198 33 313 139 358 l37 15 -40 57 c-57
81 -79 162 -79 287 0 158 36 247 115 283 52 23 156 11 259 -31z m3056 34 c13
-8 13 -10 -2 -10 -9 0 -20 5 -23 10 -8 13 5 13 25 0z m905 -184 c44 -14 54
-14 95 0 108 37 210 -26 210 -131 0 -70 -40 -118 -110 -134 -67 -15 -118 0
-160 47 -44 48 -93 65 -175 60 -97 -6 -125 -44 -125 -170 l0 -58 280 0 280 0
0 -389 0 -389 23 -6 c12 -3 37 -6 55 -6 l32 0 0 -74 c0 -41 -4 -77 -10 -81 -5
-3 -111 -3 -235 1 l-225 7 0 67 c0 72 5 80 56 80 14 0 34 5 45 10 18 10 19 24
19 305 0 224 -3 296 -12 302 -7 4 -79 9 -160 11 l-148 4 0 -310 0 -311 80 -7
80 -7 0 -73 0 -74 -255 0 -255 0 0 69 c0 75 5 81 61 81 57 0 60 15 57 336 l-3
289 -83 3 -83 3 3 77 3 77 83 3 82 3 0 83 c0 104 19 170 66 224 41 48 77 70
149 89 61 16 210 10 280 -11z m-945 -291 l0 -95 125 0 c142 0 130 10 119 -99
l-7 -61 -118 0 -119 0 0 -275 c0 -293 4 -320 49 -345 28 -15 132 -12 161 5 14
8 30 14 36 15 10 0 70 -138 63 -144 -2 -2 -22 -13 -44 -24 -151 -76 -410 -40
-463 65 -36 70 -42 135 -42 423 l0 280 -59 0 -60 0 6 -53 c12 -117 -53 -230
-166 -287 -81 -40 -160 -59 -278 -67 -114 -7 -112 -5 -91 -74 30 -103 127
-158 256 -146 57 6 102 22 204 75 7 4 78 -130 78 -148 0 -14 -103 -64 -176
-86 -40 -12 -92 -18 -164 -18 -274 -1 -419 126 -452 395 -21 169 28 339 131
451 93 101 183 138 342 138 137 0 231 -38 278 -113 l20 -31 5 24 c3 14 7 36 8
50 3 20 10 26 47 33 56 11 118 72 151 149 l25 58 68 0 67 0 0 -95z m-1428 -91
c64 -21 121 -74 149 -136 23 -51 24 -62 27 -349 3 -296 3 -297 25 -303 12 -3
37 -6 55 -6 l32 0 0 -75 0 -75 -230 0 -230 0 0 69 c0 75 5 81 60 81 60 0 62 7
58 284 -3 231 -5 254 -23 286 -62 106 -249 87 -311 -32 -11 -21 -14 -82 -14
-276 0 -278 -4 -262 71 -262 l39 0 0 -75 0 -75 -235 0 -235 0 0 69 c0 74 5 81
56 81 14 0 34 5 45 10 18 10 19 24 19 305 0 224 -3 296 -12 302 -7 4 -35 10
-63 13 l-50 5 0 75 0 75 163 3 162 2 0 -57 0 -57 28 26 c83 77 163 107 283
108 52 0 103 -6 131 -16z"/>
<path d="M5332 4290 c0 -14 2 -19 5 -12 2 6 2 18 0 25 -3 6 -5 1 -5 -13z"/>
<path d="M5462 4230 c0 -14 2 -19 5 -12 2 6 2 18 0 25 -3 6 -5 1 -5 -13z"/>
<path d="M5343 4155 c0 -38 2 -53 4 -32 2 20 2 52 0 70 -2 17 -4 1 -4 -38z"/>
<path d="M5357 3886 c7 -187 7 -188 21 -211 11 -17 12 -11 6 36 -3 31 -12 115
-19 185 l-14 129 6 -139z"/>
<path d="M5512 3610 c0 -14 2 -19 5 -12 2 6 2 18 0 25 -3 6 -5 1 -5 -13z"/>
<path d="M5823 4293 c-40 -4 -43 -6 -43 -33 0 -30 14 -47 25 -30 3 5 10 10 14
10 4 0 30 -132 56 -292 26 -161 53 -299 59 -307 9 -11 33 -13 117 -8 159 9
247 46 286 120 23 45 20 138 -8 212 -25 70 -47 103 -103 164 l-41 44 37 -27
c63 -47 122 -138 150 -230 l18 -61 -3 51 c-7 104 -99 245 -204 312 -92 59
-234 88 -360 75z"/>
<path d="M4003 4205 c-70 -224 -121 -401 -123 -425 -4 -50 2 -44 20 20 9 36
45 156 79 268 34 112 61 211 58 220 -2 9 -17 -28 -34 -83z"/>
<path d="M3238 4236 c-172 -61 -377 -264 -423 -420 -19 -62 -20 -106 -1 -55
23 65 84 163 135 219 l51 55 -50 -68 c-122 -166 -148 -298 -67 -347 44 -27
163 -27 239 -1 202 69 368 292 356 477 -2 35 -2 64 0 64 1 0 9 -15 17 -32 l14
-33 1 29 c0 38 -35 99 -70 119 -40 24 -122 21 -202 -7z"/>
<path d="M2385 4212 c-29 -6 -270 -332 -247 -332 11 0 54 48 116 130 88 116
126 161 126 148 0 -3 -38 -56 -85 -118 -47 -62 -85 -117 -85 -122 0 -20 147
14 211 49 57 31 146 122 155 159 6 23 8 24 24 9 15 -14 18 -14 23 -1 10 25 -5
56 -34 71 -27 14 -156 19 -204 7z"/>
<path d="M3776 3174 c-17 -42 -76 -219 -76 -228 0 -6 6 -4 13 4 17 19 80 215
75 232 -3 7 -7 5 -12 -8z"/>
<path d="M4105 3093 c-4 -38 -10 -90 -15 -116 -6 -40 -5 -46 5 -35 7 7 15 55
19 116 7 115 1 138 -9 35z"/>
<path d="M4003 2995 c0 -22 2 -30 4 -17 2 12 2 30 0 40 -3 9 -5 -1 -4 -23z"/>
<path d="M6250 3148 c0 -23 53 -88 72 -88 21 0 22 -3 -31 68 -26 33 -41 41
-41 20z"/>
<path d="M2612 2233 c-26 -10 -42 -62 -42 -136 0 -86 19 -150 58 -190 34 -36
52 -46 124 -68 l58 -17 0 193 0 192 -58 17 c-57 16 -114 20 -140 9z"/>
<path d="M2990 2000 l0 -190 84 0 c100 0 138 20 174 90 29 59 31 164 2 219
-27 54 -68 71 -174 71 l-86 0 0 -190z"/>
<path d="M2592 1647 c-42 -20 -65 -81 -64 -172 2 -94 8 -127 33 -177 26 -51
73 -84 149 -103 36 -9 73 -18 83 -21 16 -5 17 8 15 222 l-3 227 -65 19 c-73
20 -114 22 -148 5z"/>
<path d="M2990 1391 l0 -221 104 0 c90 0 107 3 137 23 53 35 82 103 82 196 0
93 -25 157 -74 192 -30 21 -47 24 -141 27 l-108 4 0 -221z"/>
<path d="M4963 1739 c-62 -31 -108 -106 -127 -213 l-7 -39 86 6 c99 7 179 38
226 88 41 44 41 108 0 150 -25 25 -37 29 -83 29 -33 0 -68 -8 -95 -21z"/>
<path d="M4536 8858 c-21 -29 -21 -31 11 -62 21 -21 27 -38 28 -72 2 -53 16
-70 92 -109 32 -16 108 -73 168 -128 114 -103 145 -125 145 -107 0 5 7 10 15
10 8 0 29 13 47 30 l33 29 -22 16 c-59 42 -260 227 -276 254 -35 60 -71 93
-138 127 -38 19 -73 34 -78 34 -6 0 -17 -10 -25 -22z"/>
</g>
</svg>
